subject11_noload_free_trial03_ground_reaction
version=1
nRows=55
nColumns=19
inDegrees=no
endheader
time	ground_force_r_vx	ground_force_r_vy	ground_force_r_vz	ground_force_r_px	ground_force_r_py	ground_force_r_pz	ground_torque_r_x	ground_torque_r_y	ground_torque_r_z	ground_force_l_vx	ground_force_l_vy	ground_force_l_vz	ground_force_l_px	ground_force_l_py	ground_force_l_pz	ground_torque_l_x	ground_torque_l_y	ground_torque_l_z
0.597000	-34.791580	631.859274	-30.656776	0.164964	0.000000	-0.169925	0.000000	3.571346	0.000000	0.000000	0.000000	0.000000	4.913559	0.000000	-11.624130	0.000000	0.000000	0.000000
0.597500	-34.495157	631.163054	-30.542509	0.165142	0.000000	-0.169908	0.000000	3.578325	0.000000	0.000000	0.000000	0.000000	4.889211	0.000000	-11.552141	0.000000	0.000000	0.000000
0.598000	-34.200604	630.476703	-30.429271	0.165321	0.000000	-0.169890	0.000000	3.585402	0.000000	0.000000	0.000000	0.000000	4.864959	0.000000	-11.480457	0.000000	0.000000	0.000000
0.598500	-33.907916	629.800155	-30.317093	0.165500	0.000000	-0.169872	0.000000	3.592575	0.000000	0.000000	0.000000	0.000000	4.840802	0.000000	-11.409080	0.000000	0.000000	0.000000
0.599000	-33.617091	629.133340	-30.206001	0.165679	0.000000	-0.169855	0.000000	3.599842	0.000000	0.000000	0.000000	0.000000	4.816740	0.000000	-11.338008	0.000000	0.000000	0.000000
0.599500	-33.328124	628.476192	-30.096021	0.165858	0.000000	-0.169837	0.000000	3.607198	0.000000	0.000000	0.000000	0.000000	4.792773	0.000000	-11.267240	0.000000	0.000000	0.000000
0.600000	-33.041009	627.828643	-29.987177	0.166037	0.000000	-0.169820	0.000000	3.614640	0.000000	0.000000	0.000000	0.000000	4.768901	0.000000	-11.196777	0.000000	0.000000	0.000000
0.600500	-32.755741	627.190625	-29.879493	0.166217	0.000000	-0.169802	0.000000	3.622166	0.000000	0.000000	0.000000	0.000000	4.745123	0.000000	-11.126617	0.000000	0.000000	0.000000
0.601000	-32.472315	626.562072	-29.772994	0.166396	0.000000	-0.169784	0.000000	3.629772	0.000000	0.000000	0.000000	0.000000	4.721439	0.000000	-11.056759	0.000000	0.000000	0.000000
0.601500	-32.190721	625.942918	-29.667702	0.166576	0.000000	-0.169766	0.000000	3.637456	0.000000	0.000000	0.000000	0.000000	4.697850	0.000000	-10.987203	0.000000	0.000000	0.000000
0.602000	-31.910952	625.333102	-29.563640	0.166756	0.000000	-0.169749	0.000000	3.645216	0.000000	0.000000	0.000000	0.000000	4.674354	0.000000	-10.917949	0.000000	0.000000	0.000000
0.602500	-31.632998	624.732564	-29.460830	0.166935	0.000000	-0.169731	0.000000	3.653051	0.000000	0.000000	0.000000	0.000000	4.650952	0.000000	-10.848995	0.000000	0.000000	0.000000
0.603000	-31.356851	624.141246	-29.359293	0.167115	0.000000	-0.169713	0.000000	3.660958	0.000000	0.000000	0.000000	0.000000	4.627644	0.000000	-10.780342	0.000000	0.000000	0.000000
0.603500	-31.082499	623.559090	-29.259051	0.167295	0.000000	-0.169695	0.000000	3.668935	0.000000	0.000000	0.000000	0.000000	4.604429	0.000000	-10.711987	0.000000	0.000000	0.000000
0.604000	-30.809933	622.986042	-29.160124	0.167476	0.000000	-0.169677	0.000000	3.676981	0.000000	0.000000	0.000000	0.000000	4.581307	0.000000	-10.643932	0.000000	0.000000	0.000000
0.604500	-30.539142	622.422046	-29.062531	0.167656	0.000000	-0.169659	0.000000	3.685093	0.000000	0.000000	0.000000	0.000000	4.558279	0.000000	-10.576174	0.000000	0.000000	0.000000
0.605000	-30.270111	621.867047	-28.966292	0.167836	0.000000	-0.169641	0.000000	3.693268	0.000000	0.000000	0.000000	0.000000	4.535343	0.000000	-10.508714	0.000000	0.000000	0.000000
0.605500	-30.002831	621.320988	-28.871427	0.168017	0.000000	-0.169622	0.000000	3.701505	0.000000	0.000000	0.000000	0.000000	4.512500	0.000000	-10.441551	0.000000	0.000000	0.000000
0.606000	-29.737287	620.783820	-28.777954	0.168197	0.000000	-0.169604	0.000000	3.709802	0.000000	0.000000	0.000000	0.000000	4.489749	0.000000	-10.374683	0.000000	0.000000	0.000000
0.606500	-29.473469	620.255496	-28.685893	0.168378	0.000000	-0.169586	0.000000	3.718157	0.000000	0.000000	0.000000	0.000000	4.467090	0.000000	-10.308111	0.000000	0.000000	0.000000
0.607000	-29.211364	619.735973	-28.595264	0.168559	0.000000	-0.169568	0.000000	3.726571	0.000000	0.000000	0.000000	0.000000	4.444523	0.000000	-10.241834	0.000000	0.000000	0.000000
0.607500	-28.950959	619.225207	-28.506085	0.168740	0.000000	-0.169549	0.000000	3.735043	0.000000	0.000000	0.000000	0.000000	4.422049	0.000000	-10.175851	0.000000	0.000000	0.000000
0.608000	-28.692243	618.723153	-28.418372	0.168921	0.000000	-0.169531	0.000000	3.743573	0.000000	0.000000	0.000000	0.000000	4.399666	0.000000	-10.110161	0.000000	0.000000	0.000000
0.608500	-28.435199	618.229766	-28.332141	0.169102	0.000000	-0.169512	0.000000	3.752160	0.000000	0.000000	0.000000	0.000000	4.377374	0.000000	-10.044765	0.000000	0.000000	0.000000
0.609000	-28.179810	617.744997	-28.247403	0.169283	0.000000	-0.169494	0.000000	3.760802	0.000000	0.000000	0.000000	0.000000	4.355174	0.000000	-9.979660	0.000000	0.000000	0.000000
0.609500	-27.926060	617.268798	-28.164172	0.169465	0.000000	-0.169475	0.000000	3.769498	0.000000	0.000000	0.000000	0.000000	4.333065	0.000000	-9.914847	0.000000	0.000000	0.000000
0.610000	-27.673930	616.801121	-28.082455	0.169646	0.000000	-0.169456	0.000000	3.778245	0.000000	0.000000	0.000000	0.000000	4.311047	0.000000	-9.850325	0.000000	0.000000	0.000000
0.610500	-27.423404	616.341916	-28.002264	0.169827	0.000000	-0.169438	0.000000	3.787040	0.000000	0.000000	0.000000	0.000000	4.289119	0.000000	-9.786092	0.000000	0.000000	0.000000
0.611000	-27.174466	615.891135	-27.923607	0.170009	0.000000	-0.169419	0.000000	3.795883	0.000000	0.000000	0.000000	0.000000	4.267282	0.000000	-9.722150	0.000000	0.000000	0.000000
0.611500	-26.927100	615.448731	-27.846494	0.170190	0.000000	-0.169400	0.000000	3.804773	0.000000	0.000000	0.000000	0.000000	4.245536	0.000000	-9.658496	0.000000	0.000000	0.000000
0.612000	-26.681291	615.014657	-27.770931	0.170372	0.000000	-0.169381	0.000000	3.813706	0.000000	0.000000	0.000000	0.000000	4.223879	0.000000	-9.595131	0.000000	0.000000	0.000000
0.612500	-26.437022	614.588866	-27.696924	0.170553	0.000000	-0.169362	0.000000	3.822682	0.000000	0.000000	0.000000	0.000000	4.202313	0.000000	-9.532053	0.000000	0.000000	0.000000
0.613000	-26.194278	614.171308	-27.624476	0.170734	0.000000	-0.169343	0.000000	3.831698	0.000000	0.000000	0.000000	0.000000	4.180837	0.000000	-9.469262	0.000000	0.000000	0.000000
0.613500	-25.953042	613.761937	-27.553593	0.170916	0.000000	-0.169324	0.000000	3.840753	0.000000	0.000000	0.000000	0.000000	4.159450	0.000000	-9.406757	0.000000	0.000000	0.000000
0.614000	-25.713294	613.360706	-27.484278	0.171097	0.000000	-0.169305	0.000000	3.849846	0.000000	0.000000	0.000000	0.000000	4.138152	0.000000	-9.344538	0.000000	0.000000	0.000000
0.614500	-25.475018	612.967575	-27.416534	0.171278	0.000000	-0.169286	0.000000	3.858978	0.000000	0.000000	0.000000	0.000000	4.116944	0.000000	-9.282603	0.000000	0.000000	0.000000
0.615000	-25.238192	612.582507	-27.350368	0.171459	0.000000	-0.169267	0.000000	3.868150	0.000000	0.000000	0.000000	0.000000	4.095825	0.000000	-9.220953	0.000000	0.000000	0.000000
0.615500	-25.002800	612.205473	-27.285785	0.171640	0.000000	-0.169248	0.000000	3.877366	0.000000	0.000000	0.000000	0.000000	4.074794	0.000000	-9.159587	0.000000	0.000000	0.000000
0.616000	-24.768819	611.836443	-27.222788	0.171820	0.000000	-0.169229	0.000000	3.886626	0.000000	0.000000	0.000000	0.000000	4.053852	0.000000	-9.098504	0.000000	0.000000	0.000000
0.616500	-24.536231	611.475387	-27.161383	0.172001	0.000000	-0.169210	0.000000	3.895933	0.000000	0.000000	0.000000	0.000000	4.032999	0.000000	-9.037702	0.000000	0.000000	0.000000
0.617000	-24.305014	611.122276	-27.101573	0.172182	0.000000	-0.169191	0.000000	3.905289	0.000000	0.000000	0.000000	0.000000	4.012234	0.000000	-8.977183	0.000000	0.000000	0.000000
0.617500	-24.075148	610.777083	-27.043360	0.172362	0.000000	-0.169171	0.000000	3.914694	0.000000	0.000000	0.000000	0.000000	3.991558	0.000000	-8.916945	0.000000	0.000000	0.000000
0.618000	-23.846613	610.439782	-26.986749	0.172542	0.000000	-0.169152	0.000000	3.924147	0.000000	0.000000	0.000000	0.000000	3.970969	0.000000	-8.856987	0.000000	0.000000	0.000000
0.618500	-23.619393	610.110346	-26.931741	0.172722	0.000000	-0.169133	0.000000	3.933647	0.000000	0.000000	0.000000	0.000000	3.950468	0.000000	-8.797308	0.000000	0.000000	0.000000
0.619000	-23.393467	609.788749	-26.878342	0.172902	0.000000	-0.169113	0.000000	3.943192	0.000000	0.000000	0.000000	0.000000	3.930054	0.000000	-8.737909	0.000000	0.000000	0.000000
0.619500	-23.168816	609.474968	-26.826554	0.173081	0.000000	-0.169094	0.000000	3.952784	0.000000	0.000000	0.000000	0.000000	3.909728	0.000000	-8.678788	0.000000	0.000000	0.000000
0.620000	-22.945422	609.168977	-26.776382	0.173261	0.000000	-0.169075	0.000000	3.962420	0.000000	0.000000	0.000000	0.000000	3.889489	0.000000	-8.619945	0.000000	0.000000	0.000000
0.620500	-22.723264	608.870756	-26.727827	0.173440	0.000000	-0.169055	0.000000	3.972100	0.000000	0.000000	0.000000	0.000000	3.869337	0.000000	-8.561379	0.000000	0.000000	0.000000
0.621000	-22.502324	608.580288	-26.680891	0.173618	0.000000	-0.169036	0.000000	3.981821	0.000000	0.000000	0.000000	0.000000	3.849271	0.000000	-8.503089	0.000000	0.000000	0.000000
0.621500	-22.282580	608.297564	-26.635574	0.173797	0.000000	-0.169016	0.000000	3.991582	0.000000	0.000000	0.000000	0.000000	3.829293	0.000000	-8.445075	0.000000	0.000000	0.000000
0.622000	-22.064014	608.022577	-26.591877	0.173975	0.000000	-0.168997	0.000000	4.001380	0.000000	0.000000	0.000000	0.000000	3.809400	0.000000	-8.387336	0.000000	0.000000	0.000000
0.622500	-21.846606	607.755325	-26.549801	0.174153	0.000000	-0.168977	0.000000	4.011212	0.000000	0.000000	0.000000	0.000000	3.789594	0.000000	-8.329872	0.000000	0.000000	0.000000
0.623000	-21.630339	607.495804	-26.509346	0.174330	0.000000	-0.168958	0.000000	4.021078	0.000000	0.000000	0.000000	0.000000	3.769874	0.000000	-8.272681	0.000000	0.000000	0.000000
0.623500	-21.415194	607.244009	-26.470511	0.174507	0.000000	-0.168938	0.000000	4.030973	0.000000	0.000000	0.000000	0.000000	3.750240	0.000000	-8.215764	0.000000	0.000000	0.000000
0.624000	-21.201153	606.999938	-26.433294	0.174683	0.000000	-0.168918	0.000000	4.040895	0.000000	0.000000	0.000000	0.000000	3.730692	0.000000	-8.159119	0.000000	0.000000	0.000000
